<svg width="42" height="42" viewBox="0 0 42 42" fill="none" xmlns="http://www.w3.org/2000/svg">
<path fill-rule="evenodd" clip-rule="evenodd" d="M32.1312 5.25C29.6861 5.25 27.2746 5.81928 25.0876 6.91277L22.75 8.08156V28.6684L23.5223 28.2823C26.1953 26.9458 29.1427 26.25 32.1312 26.25H33.25V5.25H32.1312ZM23.5223 3.78228C26.1953 2.44579 29.1427 1.75 32.1312 1.75H35C35.9665 1.75 36.75 2.5335 36.75 3.5V28C36.75 28.9665 35.9665 29.75 35 29.75H32.1312C29.6861 29.75 27.2745 30.3193 25.0876 31.4128L21.7826 33.0652C21.2401 33.3365 20.5959 33.3075 20.08 32.9886C19.564 32.6698 19.25 32.1065 19.25 31.5V7C19.25 6.33715 19.6245 5.73119 20.2174 5.43475L23.5223 3.78228Z" fill="#009999"/>
<path fill-rule="evenodd" clip-rule="evenodd" d="M9.86881 5.25C12.3139 5.25 14.7254 5.81928 16.9124 6.91277L19.25 8.08156V28.6684L18.4777 28.2823C15.8047 26.9458 12.8573 26.25 9.86881 26.25H8.75V5.25H9.86881ZM18.4777 3.78228C15.8047 2.44579 12.8573 1.75 9.86881 1.75H7C6.0335 1.75 5.25 2.5335 5.25 3.5V28C5.25 28.9665 6.0335 29.75 7 29.75H9.86881C12.3139 29.75 14.7255 30.3193 16.9124 31.4128L20.2174 33.0652C20.7599 33.3365 21.4041 33.3075 21.92 32.9886C22.436 32.6698 22.75 32.1065 22.75 31.5V7C22.75 6.33715 22.3755 5.73119 21.7826 5.43475L18.4777 3.78228Z" fill="#009999"/>
<path fill-rule="evenodd" clip-rule="evenodd" d="M9.86881 35H7V31.5H9.86881C12.8573 31.5 15.8047 32.1958 18.4777 33.5323L21 34.7934L23.5223 33.5323C26.1953 32.1958 29.1427 31.5 32.1312 31.5H35V35H32.1312C29.6861 35 27.2745 35.5693 25.0876 36.6628L21.7826 38.3152C21.2899 38.5616 20.71 38.5616 20.2174 38.3152L16.9124 36.6628C14.7255 35.5693 12.3139 35 9.86881 35Z" fill="#009999"/>
</svg>
