<svg width="42" height="42" viewBox="0 0 42 42" fill="none" xmlns="http://www.w3.org/2000/svg">
<path fill-rule="evenodd" clip-rule="evenodd" d="M28.5676 26.3594C29.2511 25.6759 30.3591 25.6759 31.0425 26.3594L34.8907 30.2075C35.2189 30.5357 35.4033 30.9808 35.4033 31.445C35.4033 31.9091 35.2189 32.3542 34.8907 32.6824L28.477 39.096C28.2093 39.3638 27.8619 39.5375 27.4871 39.591L22.9975 40.2324C22.4522 40.3103 21.9021 40.1269 21.5126 39.7374C21.1231 39.3479 20.9397 38.7977 21.0176 38.2525L21.659 33.7629C21.7125 33.3881 21.8862 33.0407 22.1539 32.773L28.5676 26.3594ZM29.8051 30.0717L25.0413 34.8354L24.8124 36.4376L26.4146 36.2087L31.1784 31.445L29.8051 30.0717Z" fill="#009999"/>
<path fill-rule="evenodd" clip-rule="evenodd" d="M31.1331 23.7939C32.5249 22.402 34.7816 22.402 36.1734 23.7939L37.4562 25.0766C38.848 26.4684 38.848 28.725 37.4562 30.1169C37.4562 30.1169 37.4562 30.1169 37.4562 30.1169L34.8908 32.6824C34.5626 33.0106 34.1175 33.195 33.6534 33.195C33.1892 33.195 32.7441 33.0107 32.4159 32.6825L28.5677 28.8343C27.8843 28.1509 27.8843 27.0429 28.5676 26.3595L31.1331 23.7939ZM33.6079 26.2688C33.6079 26.2688 33.6079 26.2688 33.6079 26.2688L32.28 27.5968L33.6533 28.9701L34.9813 27.6421C35.0063 27.6171 35.0063 27.5765 34.9813 27.5515L33.6986 26.2688C33.6735 26.2438 33.633 26.2438 33.6079 26.2688Z" fill="#009999"/>
<path fill-rule="evenodd" clip-rule="evenodd" d="M21 14H12.25V10.5H21V14Z" fill="#009999"/>
<path fill-rule="evenodd" clip-rule="evenodd" d="M24.5 22.75H12.25V19.25H24.5V22.75Z" fill="#009999"/>
<path fill-rule="evenodd" clip-rule="evenodd" d="M17.5 31.5H12.25V28H17.5V31.5Z" fill="#009999"/>
<path fill-rule="evenodd" clip-rule="evenodd" d="M12.25 5.25C10.317 5.25 8.75 6.817 8.75 8.75V33.25C8.75 35.183 10.317 36.75 12.25 36.75H17.5V40.25H12.25C8.38401 40.25 5.25 37.116 5.25 33.25V8.75C5.25 4.88401 8.38401 1.75 12.25 1.75H24.5C24.9641 1.75 25.4092 1.93437 25.7374 2.26256L36.2374 12.7626C36.5656 13.0908 36.75 13.5359 36.75 14V19.25H33.25V14.7249L23.7751 5.25H12.25Z" fill="#009999"/>
<path fill-rule="evenodd" clip-rule="evenodd" d="M23.8303 1.8832C24.4842 1.61233 25.2369 1.76206 25.7374 2.26255L36.2374 12.7626C36.7379 13.263 36.8877 14.0158 36.6168 14.6697C36.3459 15.3236 35.7078 15.75 35 15.75H29.75C25.884 15.75 22.75 12.616 22.75 8.74999V3.49999C22.75 2.79218 23.1764 2.15407 23.8303 1.8832ZM26.25 7.72486V8.74999C26.25 10.683 27.817 12.25 29.75 12.25H30.7751L26.25 7.72486Z" fill="#009999"/>
</svg>
