<svg width="42" height="42" viewBox="0 0 42 42" fill="none" xmlns="http://www.w3.org/2000/svg">
<path fill-rule="evenodd" clip-rule="evenodd" d="M21 5.25C19.5503 5.25 18.375 6.42525 18.375 7.875C18.375 9.32475 19.5503 10.5 21 10.5C22.4497 10.5 23.625 9.32475 23.625 7.875C23.625 6.42525 22.4497 5.25 21 5.25ZM14.875 7.875C14.875 4.49226 17.6173 1.75 21 1.75C24.3827 1.75 27.125 4.49226 27.125 7.875C27.125 11.2577 24.3827 14 21 14C17.6173 14 14.875 11.2577 14.875 7.875Z" fill="#009999"/>
<path fill-rule="evenodd" clip-rule="evenodd" d="M10.5 24.5C9.05025 24.5 7.875 25.6753 7.875 27.125C7.875 28.5747 9.05025 29.75 10.5 29.75C11.9497 29.75 13.125 28.5747 13.125 27.125C13.125 25.6753 11.9497 24.5 10.5 24.5ZM4.375 27.125C4.375 23.7423 7.11726 21 10.5 21C13.8827 21 16.625 23.7423 16.625 27.125C16.625 30.5077 13.8827 33.25 10.5 33.25C7.11726 33.25 4.375 30.5077 4.375 27.125Z" fill="#009999"/>
<path fill-rule="evenodd" clip-rule="evenodd" d="M31.5 24.5C30.0503 24.5 28.875 25.6753 28.875 27.125C28.875 28.5747 30.0503 29.75 31.5 29.75C32.9497 29.75 34.125 28.5747 34.125 27.125C34.125 25.6753 32.9497 24.5 31.5 24.5ZM25.375 27.125C25.375 23.7423 28.1173 21 31.5 21C34.8827 21 37.625 23.7423 37.625 27.125C37.625 30.5077 34.8827 33.25 31.5 33.25C28.1173 33.25 25.375 30.5077 25.375 27.125Z" fill="#009999"/>
<path fill-rule="evenodd" clip-rule="evenodd" d="M1.75 36.75C1.75 32.884 4.88401 29.75 8.75 29.75H12.25C16.116 29.75 19.25 32.884 19.25 36.75C19.25 38.683 17.683 40.25 15.75 40.25H5.25C3.317 40.25 1.75 38.683 1.75 36.75ZM8.75 33.25C6.817 33.25 5.25 34.817 5.25 36.75H15.75C15.75 34.817 14.183 33.25 12.25 33.25H8.75Z" fill="#009999"/>
<path fill-rule="evenodd" clip-rule="evenodd" d="M12.25 17.5C12.25 13.634 15.384 10.5 19.25 10.5H22.75C26.616 10.5 29.75 13.634 29.75 17.5C29.75 19.433 28.183 21 26.25 21H15.75C13.817 21 12.25 19.433 12.25 17.5ZM19.25 14C17.317 14 15.75 15.567 15.75 17.5H26.25C26.25 15.567 24.683 14 22.75 14H19.25Z" fill="#009999"/>
<path fill-rule="evenodd" clip-rule="evenodd" d="M22.75 36.75C22.75 32.884 25.884 29.75 29.75 29.75H33.25C37.116 29.75 40.25 32.884 40.25 36.75C40.25 38.683 38.683 40.25 36.75 40.25H26.25C24.317 40.25 22.75 38.683 22.75 36.75ZM29.75 33.25C27.817 33.25 26.25 34.817 26.25 36.75H36.75C36.75 34.817 35.183 33.25 33.25 33.25H29.75Z" fill="#009999"/>
</svg>
